<svg xmlns="http://www.w3.org/2000/svg" width="80px" height="80px" viewBox="0 0 24 24" fill="none">
    <path id="car"
          d="M3 8L5.72187 10.2682C5.90158 10.418 6.12811 10.5 6.36205 10.5H17.6379C17.8719 10.5 18.0984 10.418 18.2781 10.2682L21 8M6.5 14H6.51M17.5 14H17.51M8.16065 4.5H15.8394C16.5571 4.5 17.2198 4.88457 17.5758 5.50772L20.473 10.5777C20.8183 11.1821 21 11.8661 21 12.5623V18.5C21 19.0523 20.5523 19.5 20 19.5H19C18.4477 19.5 18 19.0523 18 18.5V17.5H6V18.5C6 19.0523 5.55228 19.5 5 19.5H4C3.44772 19.5 3 19.0523 3 18.5V12.5623C3 11.8661 3.18166 11.1821 3.52703 10.5777L6.42416 5.50772C6.78024 4.88457 7.44293 4.5 8.16065 4.5ZM7 14C7 14.2761 6.77614 14.5 6.5 14.5C6.22386 14.5 6 14.2761 6 14C6 13.7239 6.22386 13.5 6.5 13.5C6.77614 13.5 7 13.7239 7 14ZM18 14C18 14.2761 17.7761 14.5 17.5 14.5C17.2239 14.5 17 14.2761 17 14C17 13.7239 17.2239 13.5 17.5 13.5C17.7761 13.5 18 13.7239 18 14Z"
          stroke-width="2" stroke-linecap="round" stroke-linejoin="round"/>
    <path id="airplane"
          d="M20.0486 10.6286L15.3786 8.61859L14.3386 8.17859C14.1786 8.09859 14.0386 7.88859 14.0386 7.70859V4.64859C14.0386 3.68859 13.3286 2.54859 12.4686 2.10859C12.1686 1.95859 11.8086 1.95859 11.5086 2.10859C10.6586 2.54859 9.94859 3.69859 9.94859 4.65859V7.71859C9.94859 7.89859 9.80859 8.10859 9.64859 8.18859L3.94859 10.6386C3.31859 10.8986 2.80859 11.6886 2.80859 12.3686V13.6886C2.80859 14.5386 3.44859 14.9586 4.23859 14.6186L9.24859 12.4586C9.63859 12.2886 9.95859 12.4986 9.95859 12.9286V14.0386V15.8386C9.95859 16.0686 9.82859 16.3986 9.66859 16.5586L7.34859 18.8886C7.10859 19.1286 6.99859 19.5986 7.10859 19.9386L7.55859 21.2986C7.73859 21.8886 8.40859 22.1686 8.95859 21.8886L11.3386 19.8886C11.6986 19.5786 12.2886 19.5786 12.6486 19.8886L15.0286 21.8886C15.5786 22.1586 16.2486 21.8886 16.4486 21.2986L16.8986 19.9386C17.0086 19.6086 16.8986 19.1286 16.6586 18.8886L14.3386 16.5586C14.1686 16.3986 14.0386 16.0686 14.0386 15.8386V12.9286C14.0386 12.4986 14.3486 12.2986 14.7486 12.4586L19.7586 14.6186C20.5486 14.9586 21.1886 14.5386 21.1886 13.6886V12.3686C21.1886 11.6886 20.6786 10.8986 20.0486 10.6286Z"
    />
    <path id="bus"
          d="M5 6V15.8C5 16.9201 5 17.4802 5.21799 17.908C5.40973 18.2843 5.71569 18.5903 6.09202 18.782C6.51984 19 7.07989 19 8.2 19H15.8C16.9201 19 17.4802 19 17.908 18.782C18.2843 18.5903 18.5903 18.2843 18.782 17.908C19 17.4802 19 16.9201 19 15.8V6M5 6C5 6 5 3 12 3C19 3 19 6 19 6M5 6H19M5 13H19M17 21V19M7 21V19M8 16H8.01M16 16H16.01"
          stroke-width="2" stroke-linecap="round" stroke-linejoin="round"/>
</svg>